<svg width="10" height="10" viewBox="0 0 10 10" fill="none" xmlns="http://www.w3.org/2000/svg">
<path fill-rule="evenodd" clip-rule="evenodd" d="M0.792893 0.792893C1.18342 0.402369 1.81658 0.402369 2.20711 0.792893L5 3.58579L7.79289 0.792893C8.18342 0.402369 8.81658 0.402369 9.20711 0.792893C9.59763 1.18342 9.59763 1.81658 9.20711 2.20711L6.41421 5L9.20711 7.79289C9.59763 8.18342 9.59763 8.81658 9.20711 9.20711C8.81658 9.59763 8.18342 9.59763 7.79289 9.20711L5 6.41421L2.20711 9.20711C1.81658 9.59763 1.18342 9.59763 0.792893 9.20711C0.402369 8.81658 0.402369 8.18342 0.792893 7.79289L3.58579 5L0.792893 2.20711C0.402369 1.81658 0.402369 1.18342 0.792893 0.792893Z" fill="black"/>
</svg>
