<svg width="22" height="13" viewBox="0 0 22 13" fill="none" xmlns="http://www.w3.org/2000/svg">
<path fill-rule="evenodd" clip-rule="evenodd" d="M4 2C3.44772 2 3 2.44772 3 3C3 3.55228 3.44772 4 4 4C4.55228 4 5 3.55228 5 3C5 2.44772 4.55228 2 4 2ZM1 3C1 1.34315 2.34315 0 4 0C5.65685 0 7 1.34315 7 3C7 4.65685 5.65685 6 4 6C2.34315 6 1 4.65685 1 3Z" fill="black"/>
<path fill-rule="evenodd" clip-rule="evenodd" d="M18 2C17.4477 2 17 2.44772 17 3C17 3.55228 17.4477 4 18 4C18.5523 4 19 3.55228 19 3C19 2.44772 18.5523 2 18 2ZM15 3C15 1.34315 16.3431 0 18 0C19.6569 0 21 1.34315 21 3C21 4.65685 19.6569 6 18 6C16.3431 6 15 4.65685 15 3Z" fill="black"/>
<path fill-rule="evenodd" clip-rule="evenodd" d="M0 11C0 8.79086 1.79086 7 4 7C6.20914 7 8 8.79086 8 11V12C8 12.5523 7.55228 13 7 13H1C0.447715 13 0 12.5523 0 12V11ZM4 9C2.89543 9 2 9.89543 2 11H6C6 9.89543 5.10457 9 4 9Z" fill="black"/>
<path fill-rule="evenodd" clip-rule="evenodd" d="M14 11C14 8.79086 15.7909 7 18 7C20.2091 7 22 8.79086 22 11V12C22 12.5523 21.5523 13 21 13H15C14.4477 13 14 12.5523 14 12V11ZM18 9C16.8954 9 16 9.89543 16 11H20C20 9.89543 19.1046 9 18 9Z" fill="black"/>
<path fill-rule="evenodd" clip-rule="evenodd" d="M11 0C11.5523 0 12 0.447715 12 1V12C12 12.5523 11.5523 13 11 13C10.4477 13 10 12.5523 10 12V1C10 0.447715 10.4477 0 11 0Z" fill="black"/>
</svg>
