<svg width="19" height="14" viewBox="0 0 19 14" fill="none" xmlns="http://www.w3.org/2000/svg">
<path fill-rule="evenodd" clip-rule="evenodd" d="M9.12861 0.0715233C9.36702 -0.0238411 9.63298 -0.0238411 9.87139 0.0715233L14.7056 2.00519C16.8192 2.11218 18.5 3.8598 18.5 6V7C18.5 9.06624 16.9333 10.7666 14.9231 10.9779C11.8526 13.7679 7.15151 13.7688 4.07997 10.9807C1.79163 10.7688 0 8.84365 0 6.5C0 4.08306 1.90544 2.11116 4.29607 2.00454L9.12861 0.0715233ZM3.5 4.20802C2.61705 4.5938 2 5.47484 2 6.5C2 7.52516 2.61705 8.4062 3.5 8.79198V4.20802ZM5.5 9.56734C7.78481 11.5723 11.2152 11.5723 13.5 9.56734V3.67703L9.5 2.07703L5.5 3.67703V9.56734ZM15.5 4.26756V8.73244C16.0978 8.38663 16.5 7.74028 16.5 7V6C16.5 5.25972 16.0978 4.61337 15.5 4.26756ZM9.5 5.53078L7.74254 5.97014C7.20674 6.10409 6.66381 5.77833 6.52986 5.24254C6.39591 4.70674 6.72167 4.16381 7.25746 4.02986L9.25746 3.52986C9.4167 3.49005 9.5833 3.49005 9.74254 3.52986L11.7425 4.02986C12.2783 4.16381 12.6041 4.70674 12.4701 5.24254C12.3362 5.77833 11.7933 6.10409 11.2575 5.97014L9.5 5.53078Z" fill="black"/>
</svg>
