<svg width="21" height="20" viewBox="0 0 21 20" fill="none" xmlns="http://www.w3.org/2000/svg">
<path fill-rule="evenodd" clip-rule="evenodd" d="M18.2929 12.7071C18.1311 12.5453 17.8689 12.5453 17.7071 12.7071L17.4142 13L18 13.5858L18.2929 13.2929C18.4547 13.1311 18.4547 12.8689 18.2929 12.7071ZM19.7071 14.7071C20.6499 13.7643 20.6499 12.2357 19.7071 11.2929C18.7643 10.3501 17.2357 10.3501 16.2929 11.2929L15.2929 12.2929V12.2929L11.2929 16.2929C11.1054 16.4804 11 16.7348 11 17V19C11 19.5523 11.4477 20 12 20H14C14.2652 20 14.5196 19.8946 14.7071 19.7071L19.7071 14.7071ZM16.5858 15L16 14.4142L13.4142 17L14 17.5858L16.5858 15Z" fill="black"/>
<path fill-rule="evenodd" clip-rule="evenodd" d="M3 4C3 3.44772 3.44772 3 4 3H7C7.55228 3 8 3.44772 8 4V7C8 7.55228 7.55228 8 7 8H4C3.44772 8 3 7.55228 3 7V4ZM5 5V6H6V5H5Z" fill="black"/>
<path fill-rule="evenodd" clip-rule="evenodd" d="M9 4C9 3.44772 9.44772 3 10 3H13C13.5523 3 14 3.44772 14 4V7C14 7.55228 13.5523 8 13 8H10C9.44772 8 9 7.55228 9 7V4ZM11 5V6H12V5H11Z" fill="black"/>
<path fill-rule="evenodd" clip-rule="evenodd" d="M9 10C9 9.44772 9.44772 9 10 9H13C13.5523 9 14 9.44772 14 10C14 10.5523 13.5523 11 13 11H11V13C11 13.5523 10.5523 14 10 14C9.44772 14 9 13.5523 9 13V10Z" fill="black"/>
<path fill-rule="evenodd" clip-rule="evenodd" d="M0 1C0 0.447715 0.447715 0 1 0H4C4.55228 0 5 0.447715 5 1C5 1.55228 4.55228 2 4 2H2V4C2 4.55228 1.55228 5 1 5C0.447715 5 0 4.55228 0 4V1Z" fill="black"/>
<path fill-rule="evenodd" clip-rule="evenodd" d="M1 12C1.55228 12 2 12.4477 2 13V15H4C4.55228 15 5 15.4477 5 16C5 16.5523 4.55228 17 4 17H1C0.447715 17 0 16.5523 0 16V13C0 12.4477 0.447715 12 1 12Z" fill="black"/>
<path fill-rule="evenodd" clip-rule="evenodd" d="M12 1C12 0.447715 12.4477 0 13 0H16C16.5523 0 17 0.447715 17 1V4C17 4.55228 16.5523 5 16 5C15.4477 5 15 4.55228 15 4V2H13C12.4477 2 12 1.55228 12 1Z" fill="black"/>
<path fill-rule="evenodd" clip-rule="evenodd" d="M3 10C3 9.44772 3.44772 9 4 9H7C7.55228 9 8 9.44772 8 10V13C8 13.5523 7.55228 14 7 14H4C3.44772 14 3 13.5523 3 13V10ZM5 11V12H6V11H5Z" fill="black"/>
</svg>
